<svg width="168" height="144" viewBox="0 0 168 144" fill="none" xmlns="http://www.w3.org/2000/svg">
<path d="M34.5 71L63.5118 121.25H5.48815L34.5 71Z" fill="#C81F34"/>
<path d="M10.2202 126.25L37.5 79L64.7798 126.25H10.2202Z" stroke="#D9D9D8" stroke-width="2"/>
<path d="M99.5 67L128.512 16.75H70.4881L99.5 67Z" fill="#C81F34"/>
<path d="M75.2202 22.75L102.5 70L129.78 22.75H75.2202Z" stroke="#D9D9D8" stroke-width="2"/>
<path d="M33.5 68L62.5118 17.75H4.48815L33.5 68Z" fill="white"/>
<path d="M67.5 17L96.5118 67.25H38.4881L67.5 17Z" fill="#C81F34"/>
<path d="M43.2202 72.25L70.5 25L97.7798 72.25H43.2202Z" stroke="#D9D9D8" stroke-width="2"/>
<path d="M66.5 120L95.5118 69.75H37.4881L66.5 120Z" fill="#D9D9D9"/>
<path d="M42.2202 76.75L69.5 124L96.7798 76.75H42.2202Z" stroke="#D9D9D8" stroke-width="2"/>
<path d="M131.5 17L160.512 67.25H102.488L131.5 17Z" fill="#D9D9D9"/>
<path d="M107.22 72.25L134.5 25L161.78 72.25H107.22Z" stroke="#D9D9D8" stroke-width="2"/>
</svg>
